<?xml version="1.0" standalone="no"?><!DOCTYPE svg PUBLIC "-//W3C//DTD SVG 1.1//EN" "http://www.w3.org/Graphics/SVG/1.1/DTD/svg11.dtd"><svg t="1639374684734" class="icon" viewBox="0 0 1024 1024" version="1.1" xmlns="http://www.w3.org/2000/svg" p-id="5974" xmlns:xlink="http://www.w3.org/1999/xlink" width="128" height="128"><defs><style type="text/css"></style></defs><path d="M841.728 423.936V141.312l-161.28-43.008h-0.512c-13.312 36.352-83.456 64.512-167.936 64.512s-154.624-27.648-167.936-64l-163.328 43.52v281.6a199.68 199.68 0 0 1-29.184 103.936v422.912h720.384v-420.864a201.6256 201.6256 0 0 1-30.208-105.984z" fill="#ED142E" p-id="5975"></path><path d="M510.464 184.32c100.352 0 181.76-33.28 181.76-74.24a28.9792 28.9792 0 0 0-1.536-9.216l-10.24-2.56h-0.512c-13.312 36.352-83.456 64.512-167.936 64.512s-154.624-27.648-167.936-64l-14.336 3.584a39.5264 39.5264 0 0 0-1.024 7.68c0 40.96 81.408 74.24 181.76 74.24zM782.336 459.776V125.952l60.928 16.384v281.6a199.68 199.68 0 0 0 29.184 103.936v99.328a201.472 201.472 0 0 1-90.112-167.424z" fill="#FFFFFF" p-id="5976"></path><path d="M872.704 627.6608l-0.4096-0.256a201.7792 201.7792 0 0 1-90.2144-167.6288V125.5936h0.3072l61.1328 16.4352v281.6a199.2192 199.2192 0 0 0 29.1328 103.7824z m-90.112-501.4016V459.776a201.2672 201.2672 0 0 0 89.6 166.9632v-98.816a199.68 199.68 0 0 1-29.184-103.9872v-281.6z" p-id="5977"></path><path d="M827.904 138.24v315.904c3.072 25.088 15.872 82.432 44.544 110.592v37.888c-61.44-32.768-74.24-140.8-74.752-145.92V129.536z" fill="#DF1F2C" p-id="5978"></path><path d="M873.728 604.7744l-1.8944-1.024c-63.488-33.8432-75.3152-145.8176-75.4176-146.944V128l32.768 9.4208V454.144c3.4304 27.904 16.5888 82.5856 44.1344 109.6704l0.4096 0.3584z m-74.752-473.5488V456.704c0 0.9728 11.5712 109.3632 72.192 143.7696v-35.2256c-27.8016-27.6992-40.96-82.7392-44.544-110.9504V139.2128z" fill="#1C1C1C" p-id="5979"></path><path d="M241.664 459.776V125.952l-60.928 16.384v281.6a199.68 199.68 0 0 1-29.184 103.936v99.328a200.2432 200.2432 0 0 0 90.112-167.424z" fill="#FFFFFF" p-id="5980"></path><path d="M151.296 627.6608v-99.84a199.168 199.168 0 0 0 29.184-103.8848v-281.6l61.44-16.4864V459.776a200.8576 200.8576 0 0 1-90.2144 167.6288z m0.512-99.7376v98.7648a200.3456 200.3456 0 0 0 89.6-166.912V126.3104l-60.416 16.2304v281.6a199.68 199.68 0 0 1-29.184 103.7824z" p-id="5981"></path><path d="M196.608 138.24v315.904c-3.072 25.088-15.872 82.432-44.544 110.592v37.888c61.44-32.768 74.24-140.8 74.752-145.92V129.536z" fill="#DF1F2C" p-id="5982"></path><path d="M150.784 604.7744v-40.5504l0.4096-0.3584c27.5456-27.0848 40.96-81.92 44.1856-109.824V137.2672L228.096 128v328.704c0 1.28-11.9808 113.2032-75.4176 147.0464z m2.56-39.4752v35.1744c60.6208-34.4064 72.0896-142.7968 72.192-143.872V131.2256l-27.648 7.9872V454.144C194.56 482.56 181.1456 537.6 153.6 565.248z" fill="#1C1C1C" p-id="5983"></path><path d="M512 285.696a196.352 196.352 0 0 0 195.584-180.224l-27.136-7.168h-0.512c-4.096 11.776-14.336 22.528-28.672 31.744a145.0496 145.0496 0 0 1-278.528 0c-14.336-9.216-24.576-19.968-28.672-31.744l-27.648 7.168A197.0688 197.0688 0 0 0 512 285.696z" fill="#FFFFFF" p-id="5984"></path><path d="M512 285.952a195.328 195.328 0 0 1-133.12-52.3776 197.5296 197.5296 0 0 1-62.72-128l27.904-7.2192c3.9424 11.3152 13.568 21.9648 28.5696 31.5904a144.7936 144.7936 0 0 0 278.016 0c15.0016-9.6768 24.6272-20.48 28.5696-31.5904h0.768l27.3408 7.2192A196.608 196.608 0 0 1 512 285.952zM316.672 105.6768a195.9936 195.9936 0 0 0 390.6048 0l-26.88-7.1168h-0.3072c-3.9936 11.3664-13.6192 21.9648-28.6208 31.6416a145.6128 145.6128 0 0 1-51.456 74.9056 145.2544 145.2544 0 0 1-176.0768 0 146.3296 146.3296 0 0 1-51.2-74.7008c-14.9504-9.6256-24.576-20.48-28.6208-31.5904z" fill="#333333" p-id="5985"></path><path d="M512 270.336a180.8384 180.8384 0 0 0 180.224-168.96l-11.776-3.072h-0.512a47.5648 47.5648 0 0 1-9.728 15.872 160 160 0 0 1-316.416 0 47.2576 47.2576 0 0 1-9.216-15.36l-12.288 3.584A179.8656 179.8656 0 0 0 512 270.336z" fill="#DF1F2C" p-id="5986"></path><path d="M512 271.36a180.9408 180.9408 0 0 1-180.992-168.96v-1.024l14.3872-4.096 0.4096 1.1264a46.08 46.08 0 0 0 8.96 14.9504v0.6656a158.72 158.72 0 0 0 313.9072 0v-0.6656a46.08 46.08 0 0 0 9.472-15.36l0.3072-0.8192h2.5088l12.8 3.328v1.0752A182.3744 182.3744 0 0 1 512 271.36zM333.6192 103.3216A178.432 178.432 0 0 0 512 269.056 179.8144 179.8144 0 0 0 690.8928 102.4l-10.24-2.6112a48.64 48.64 0 0 1-9.3696 15.0528 161.28 161.28 0 0 1-318.8224 0 48.9472 48.9472 0 0 1-8.8064-14.3872z" fill="#1C1C1C" p-id="5987"></path><path d="M152.064 902.144h719.872v49.152H152.064z" fill="#BA0C29" p-id="5988"></path><path d="M501.1456 775.8848v40.96h-132.096v-34.3552q58.7264-96 69.7856-118.8352t11.0592-35.84a25.856 25.856 0 0 0-3.328-14.6432 11.5712 11.5712 0 0 0-10.24-4.8128 11.2128 11.2128 0 0 0-10.24 5.12 45.0048 45.0048 0 0 0-3.328 21.248v22.8864H369.0496v-8.7552a190.5664 190.5664 0 0 1 2.0992-31.8976 55.9104 55.9104 0 0 1 10.24-22.9376 51.2 51.2 0 0 1 21.248-17.1008 76.8 76.8 0 0 1 31.3856-5.7856q35.84 0 54.1696 17.7664a59.904 59.904 0 0 1 18.3296 44.9536 106.9568 106.9568 0 0 1-10.24 43.6736q-10.24 23.04-60.8768 97.792zM637.2864 680.5504a37.2736 37.2736 0 0 1 20.48 15.104q6.7072 10.24 6.7072 49.152a120.4736 120.4736 0 0 1-6.5536 44.544 46.4896 46.4896 0 0 1-22.5792 24.1152 89.856 89.856 0 0 1-40.96 8.2432q-28.5184 0-44.8-9.5744a46.4896 46.4896 0 0 1-21.4016-23.5008q-5.12-13.8752-5.12-48.2304v-19.0464h60.0576v39.0656a63.2832 63.2832 0 0 0 1.8432 19.8656 8.0384 8.0384 0 0 0 8.2432 4.2496 8.96 8.96 0 0 0 9.216-5.12 99.8912 99.8912 0 0 0 2.2016-27.9552v-16.64a48.7424 48.7424 0 0 0-3.1232-20.224 15.36 15.36 0 0 0-9.216-8.3968 95.3344 95.3344 0 0 0-23.6544-2.304v-34.9184a120.9856 120.9856 0 0 0 26.4704-1.6384 11.5712 11.5712 0 0 0 7.2704-7.1168 49.152 49.152 0 0 0 2.2016-17.2544v-13.3632a34.816 34.816 0 0 0-2.6112-16.64 8.96 8.96 0 0 0-8.0896-3.9936 8.8576 8.8576 0 0 0-8.5504 4.2496 44.8512 44.8512 0 0 0-2.304 18.0736v19.7632h-60.3136v-20.48q0-34.4576 15.7696-46.592t50.0736-12.1344q42.9568 0 58.2656 16.7936t15.36 46.6432q0 20.1728-5.4784 29.184a49.152 49.152 0 0 1-19.4048 16.0768zM325.4272 388.2496l30.0032-5.12a80.384 80.384 0 0 1 21.9136-1.4336 21.7088 21.7088 0 0 1 13.3632 6.9632 40.96 40.96 0 0 1 8.192 20.992 23.7568 23.7568 0 0 1-0.768 14.6944 22.4768 22.4768 0 0 1-11.52 8.2944 22.5792 22.5792 0 0 1 15.36 5.4272 30.72 30.72 0 0 1 6.5536 16.128l1.8432 10.752a43.264 43.264 0 0 1 0.256 17.8176 14.6432 14.6432 0 0 1-7.2192 9.1648 88.7296 88.7296 0 0 1-23.6544 6.144l-34.816 5.888z m33.4848 14.6944l4.352 25.6 2.9696-0.5632q4.4032-0.768 5.12-3.1232a36.1984 36.1984 0 0 0-0.9216-12.6976 20.48 20.48 0 0 0-2.304-7.424 5.12 5.12 0 0 0-3.072-2.304 23.4496 23.4496 0 0 0-6.144 0.512z m7.424 43.7248l5.4784 32.3584a13.0048 13.0048 0 0 0 7.7824-3.3792 14.1824 14.1824 0 0 0 0.256-9.0624L378.0096 455.68q-1.28-7.424-3.1232-8.7552a14.336 14.336 0 0 0-8.5504-0.256zM484.4032 369.2544l5.4784 78.2336a135.6288 135.6288 0 0 1 0.4096 18.7392 25.6 25.6 0 0 1-4.352 11.4176 26.7264 26.7264 0 0 1-10.6496 9.3696 42.4448 42.4448 0 0 1-16.2304 4.096A46.4896 46.4896 0 0 1 440.32 488.96a27.904 27.904 0 0 1-12.6464-8.192 25.0368 25.0368 0 0 1-5.5296-11.4176q-1.1776-6.144-2.56-25.9584L414.72 374.1184l30.72-2.1504 6.144 87.808a35.0208 35.0208 0 0 0 1.536 9.728 3.2768 3.2768 0 0 0 3.5328 1.8944 3.5328 3.5328 0 0 0 3.584-2.6112 43.776 43.776 0 0 0 0-11.1616l-6.2464-86.272zM534.6816 369.7152l-1.4848 93.9008 18.5344 0.3072-0.3584 23.5008-49.0496-1.024 1.8432-117.3504zM597.504 373.76l-8.192 93.3376 18.4832 1.6384-2.048 23.3984-48.896-4.3008 10.24-116.9408zM687.7696 423.0144l-27.904-5.12 1.4848-8.5504a17.152 17.152 0 0 0 0.256-7.8336 3.9936 3.9936 0 0 0-3.2768-2.2528 4.608 4.608 0 0 0-4.5056 1.4848 13.056 13.056 0 0 0-2.56 6.4512 19.4048 19.4048 0 0 0 0 9.0112 23.0912 23.0912 0 0 0 7.2704 8.7552q17.9712 15.36 21.8624 24.0128a45.5168 45.5168 0 0 1 0.8704 25.6 43.776 43.776 0 0 1-6.0928 17.7152 22.9888 22.9888 0 0 1-12.9024 7.8336 44.8 44.8 0 0 1-19.968 0.5632 43.7248 43.7248 0 0 1-19.8144-8.192 22.7328 22.7328 0 0 1-9.1136-13.6192 60.4672 60.4672 0 0 1 0.8704-20.48l1.3312-7.5776 27.904 5.12-2.4576 14.08a18.688 18.688 0 0 0-0.3072 8.5504 4.608 4.608 0 0 0 3.84 2.6112 5.12 5.12 0 0 0 5.12-1.5872 13.6704 13.6704 0 0 0 2.7136-6.7584 22.016 22.016 0 0 0-0.4608-13.824 90.0608 90.0608 0 0 0-12.2368-12.9536 140.4416 140.4416 0 0 1-12.9536-13.4144 25.6 25.6 0 0 1-4.4032-10.24 41.3696 41.3696 0 0 1 0.256-15.36 42.5984 42.5984 0 0 1 6.8096-18.8416 23.1424 23.1424 0 0 1 12.6464-7.68 44.3904 44.3904 0 0 1 18.8928 0 48.3328 48.3328 0 0 1 19.3024 7.2704 21.1968 21.1968 0 0 1 9.2672 11.4688 51.2 51.2 0 0 1-0.768 20.0192z" fill="#1C1C1C" p-id="5989"></path><path d="M872.448 950.528v-420.864a201.6256 201.6256 0 0 1-30.208-105.984v-282.624l-161.28-43.008h-0.512c-13.312 36.352-83.456 64.512-167.936 64.512h-6.144v787.968z" opacity=".15" p-id="5990"></path></svg>