<?xml version="1.0" standalone="no"?><!DOCTYPE svg PUBLIC "-//W3C//DTD SVG 1.1//EN" "http://www.w3.org/Graphics/SVG/1.1/DTD/svg11.dtd"><svg t="1639799775771" class="icon" viewBox="0 0 1032 1024" version="1.1" xmlns="http://www.w3.org/2000/svg" p-id="2059" xmlns:xlink="http://www.w3.org/1999/xlink" width="129" height="128"><defs><style type="text/css"></style></defs><path d="M41.290323 41.290323h388.129032v388.129032H41.290323z" fill="#FFDC5F" p-id="2060"></path><path d="M41.290323 594.580645h388.129032v388.129032H41.290323z" fill="#FF7A9C" p-id="2061"></path><path d="M602.83871 41.290323h388.129032v388.129032h-388.129032z" fill="#71EDBA" p-id="2062"></path><path d="M602.83871 594.580645h388.129032v388.129032h-388.129032z" fill="#5FD9FF" p-id="2063"></path><path d="M101.16129 982.709677v-348.903225l-20.645161 20.645161H429.419355v-41.290323H59.870968V982.709677zM101.16129 429.419355V80.516129l-20.645161 20.645161H429.419355v-41.290322H59.870968V429.419355zM662.709677 982.709677v-348.903225l-20.645161 20.645161H990.967742v-41.290323h-369.548387V982.709677zM662.709677 429.419355V80.516129l-20.645161 20.645161H990.967742v-41.290322h-369.548387V429.419355z" fill="#FFFFFF" opacity=".24" p-id="2064"></path><path d="M41.290323 61.935484h388.129032a20.645161 20.645161 0 0 1-20.645161-20.645161v388.129032a20.645161 20.645161 0 0 1 20.645161-20.645161H41.290323a20.645161 20.645161 0 0 1 20.645161 20.645161V41.290323a20.645161 20.645161 0 0 1-20.645161 20.645161z m0 388.129032h388.129032a20.645161 20.645161 0 0 0 20.645161-20.645161V41.290323a20.645161 20.645161 0 0 0-20.645161-20.645162H41.290323a20.645161 20.645161 0 0 0-20.645162 20.645162v388.129032a20.645161 20.645161 0 0 0 20.645162 20.645161zM41.290323 615.225806h388.129032a20.645161 20.645161 0 0 1-20.645161-20.645161v388.129032a20.645161 20.645161 0 0 1 20.645161-20.645161H41.290323a20.645161 20.645161 0 0 1 20.645161 20.645161v-388.129032a20.645161 20.645161 0 0 1-20.645161 20.645161z m0 388.129033h388.129032a20.645161 20.645161 0 0 0 20.645161-20.645162v-388.129032a20.645161 20.645161 0 0 0-20.645161-20.645161H41.290323a20.645161 20.645161 0 0 0-20.645162 20.645161v388.129032a20.645161 20.645161 0 0 0 20.645162 20.645162zM602.83871 61.935484h388.129032a20.645161 20.645161 0 0 1-20.645161-20.645161v388.129032a20.645161 20.645161 0 0 1 20.645161-20.645161h-388.129032a20.645161 20.645161 0 0 1 20.645161 20.645161V41.290323a20.645161 20.645161 0 0 1-20.645161 20.645161z m0 388.129032h388.129032a20.645161 20.645161 0 0 0 20.645161-20.645161V41.290323a20.645161 20.645161 0 0 0-20.645161-20.645162h-388.129032a20.645161 20.645161 0 0 0-20.645162 20.645162v388.129032a20.645161 20.645161 0 0 0 20.645162 20.645161zM602.83871 615.225806h388.129032a20.645161 20.645161 0 0 1-20.645161-20.645161v388.129032a20.645161 20.645161 0 0 1 20.645161-20.645161h-388.129032a20.645161 20.645161 0 0 1 20.645161 20.645161v-388.129032a20.645161 20.645161 0 0 1-20.645161 20.645161z m0 388.129033h388.129032a20.645161 20.645161 0 0 0 20.645161-20.645162v-388.129032a20.645161 20.645161 0 0 0-20.645161-20.645161h-388.129032a20.645161 20.645161 0 0 0-20.645162 20.645161v388.129032a20.645161 20.645161 0 0 0 20.645162 20.645162z" fill="#6E6E96" p-id="2065"></path></svg>