<?xml version="1.0" standalone="no"?><!DOCTYPE svg PUBLIC "-//W3C//DTD SVG 1.1//EN" "http://www.w3.org/Graphics/SVG/1.1/DTD/svg11.dtd"><svg t="1639799603586" class="icon" viewBox="0 0 1027 1024" version="1.1" xmlns="http://www.w3.org/2000/svg" p-id="1739" xmlns:xlink="http://www.w3.org/1999/xlink" width="128.375" height="128"><defs><style type="text/css"></style></defs><path d="M40.893589 394.970728h225.822576v225.826665H40.893589z" fill="#86BFB5" p-id="1740"></path><path d="M40.893589 415.417522h225.822576a20.446794 20.446794 0 0 1-20.446794-20.446794v225.826665a20.446794 20.446794 0 0 1 20.446794-20.446794H40.893589a20.446794 20.446794 0 0 1 20.446794 20.446794V394.970728a20.446794 20.446794 0 0 1-20.446794 20.446794z m0 225.822576h225.822576a20.446794 20.446794 0 0 0 20.446794-20.446794V394.970728a20.446794 20.446794 0 0 0-20.446794-20.446795H40.893589a20.446794 20.446794 0 0 0-20.446795 20.446795v225.826665a20.446794 20.446794 0 0 0 20.446795 20.442705z" fill="#6E6E96" p-id="1741"></path><path d="M398.810636 394.970728h588.049807v225.826665h-588.049807z" fill="#F0F0FF" p-id="1742"></path><path d="M40.893589 40.893589h225.822576v225.826665H40.893589z" fill="#FFD75F" p-id="1743"></path><path d="M40.893589 61.340383h225.822576a20.446794 20.446794 0 0 1-20.446794-20.446794v225.826665a20.446794 20.446794 0 0 1 20.446794-20.446794H40.893589a20.446794 20.446794 0 0 1 20.446794 20.446794V40.893589a20.446794 20.446794 0 0 1-20.446794 20.446794z m0 225.822576h225.822576a20.446794 20.446794 0 0 0 20.446794-20.446794V40.893589a20.446794 20.446794 0 0 0-20.446794-20.446795H40.893589a20.446794 20.446794 0 0 0-20.446795 20.446795v225.826665a20.446794 20.446794 0 0 0 20.446795 20.442705z" fill="#6E6E96" p-id="1744"></path><path d="M398.810636 40.893589h588.049807v225.826665h-588.049807z" fill="#F0F0FF" p-id="1745"></path><path d="M40.893589 757.287924h225.822576v225.818487H40.893589z" fill="#FF8CBD" p-id="1746"></path><path d="M40.893589 777.734719h225.822576a20.446794 20.446794 0 0 1-20.446794-20.446795v225.818487a20.446794 20.446794 0 0 1 20.446794-20.446794H40.893589a20.446794 20.446794 0 0 1 20.446794 20.446794v-225.818487a20.446794 20.446794 0 0 1-20.446794 20.446795z m0 225.818487h225.822576a20.446794 20.446794 0 0 0 20.446794-20.446795v-225.818487a20.446794 20.446794 0 0 0-20.446794-20.446794H40.893589a20.446794 20.446794 0 0 0-20.446795 20.446794v225.818487a20.446794 20.446794 0 0 0 20.446795 20.446795z" fill="#6E6E96" p-id="1747"></path><path d="M398.810636 757.287924h588.049807v225.818487h-588.049807z" fill="#F0F0FF" p-id="1748"></path><path d="M419.25743 927.069926h566.940537v53.161666H419.25743zM393.240929 563.116986h592.957038v57.676318h-592.957038zM378.363841 211.432122h607.834126v55.288132H378.363841z" fill="#6E6E96" opacity=".15" p-id="1749"></path><path d="M398.810636 61.340383h567.603012v31.500332h-567.603012zM415.168071 415.417522h567.603013v31.500331h-567.603013zM402.899994 776.978187h567.603013v31.500332h-567.603013z" fill="#FFFFFF" p-id="1750"></path><path d="M398.810636 415.417522h588.049807a20.446794 20.446794 0 0 1-20.446795-20.446794v225.826665a20.446794 20.446794 0 0 1 20.446795-20.446794h-588.049807a20.446794 20.446794 0 0 1 20.446794 20.446794V394.970728a20.446794 20.446794 0 0 1-20.446794 20.446794z m0 225.822576h588.049807a20.446794 20.446794 0 0 0 20.446794-20.446794V394.970728a20.446794 20.446794 0 0 0-20.446794-20.446795h-588.049807a20.446794 20.446794 0 0 0-20.446795 20.446795v225.826665a20.446794 20.446794 0 0 0 20.446795 20.442705zM398.810636 61.340383h588.049807a20.446794 20.446794 0 0 1-20.446795-20.446794v225.826665a20.446794 20.446794 0 0 1 20.446795-20.446794h-588.049807a20.446794 20.446794 0 0 1 20.446794 20.446794V40.893589a20.446794 20.446794 0 0 1-20.446794 20.446794z m0 225.822576h588.049807a20.446794 20.446794 0 0 0 20.446794-20.446794V40.893589a20.446794 20.446794 0 0 0-20.446794-20.446795h-588.049807a20.446794 20.446794 0 0 0-20.446795 20.446795v225.826665a20.446794 20.446794 0 0 0 20.446795 20.442705zM398.810636 777.734719h588.049807a20.446794 20.446794 0 0 1-20.446795-20.446795v225.818487a20.446794 20.446794 0 0 1 20.446795-20.446794h-588.049807a20.446794 20.446794 0 0 1 20.446794 20.446794v-225.818487a20.446794 20.446794 0 0 1-20.446794 20.446795z m0 225.818487h588.049807a20.446794 20.446794 0 0 0 20.446794-20.446795v-225.818487a20.446794 20.446794 0 0 0-20.446794-20.446794h-588.049807a20.446794 20.446794 0 0 0-20.446795 20.446794v225.818487a20.446794 20.446794 0 0 0 20.446795 20.446795z" fill="#6E6E96" p-id="1751"></path><path d="M61.340383 61.340383h184.928988v31.500332H61.340383zM61.340383 417.114606h184.933077v31.500331H61.340383zM61.340383 775.763648h184.933077v35.58969H61.340383z" fill="#FFFFFF" opacity=".31" p-id="1752"></path></svg>