<?xml version="1.0" standalone="no"?><!DOCTYPE svg PUBLIC "-//W3C//DTD SVG 1.1//EN" "http://www.w3.org/Graphics/SVG/1.1/DTD/svg11.dtd"><svg t="1639374863100" class="icon" viewBox="0 0 1024 1024" version="1.1" xmlns="http://www.w3.org/2000/svg" p-id="6142" xmlns:xlink="http://www.w3.org/1999/xlink" width="128" height="128"><defs><style type="text/css"></style></defs><path d="M841.728 423.936V141.312l-161.28-43.008h-0.512c-13.312 36.352-83.456 64.512-167.936 64.512s-154.624-27.648-167.936-64l-163.328 43.52v281.6a199.68 199.68 0 0 1-29.184 103.936v422.912h720.384v-420.864a201.6256 201.6256 0 0 1-30.208-105.984z" fill="#FCB12B" p-id="6143"></path><path d="M510.464 184.32c100.352 0 181.76-33.28 181.76-74.24a28.9792 28.9792 0 0 0-1.536-9.216l-10.24-2.56h-0.512c-13.312 36.352-83.456 64.512-167.936 64.512s-154.624-27.648-167.936-64l-14.336 3.584a39.5264 39.5264 0 0 0-1.024 7.68c0 40.96 81.408 74.24 181.76 74.24z" fill="#989E9A" p-id="6144"></path><path d="M782.336 459.776V125.952l60.928 16.384v281.6a199.68 199.68 0 0 0 29.184 103.936v99.328a201.472 201.472 0 0 1-90.112-167.424z" fill="#151821" p-id="6145"></path><path d="M827.904 138.24v315.904c3.072 25.088 15.872 82.432 44.544 110.592v37.888c-61.44-32.768-74.24-140.8-74.752-145.92V129.536z" fill="#989E9A" p-id="6146"></path><path d="M241.664 459.776V125.952l-60.928 16.384v281.6a199.68 199.68 0 0 1-29.184 103.936v99.328a200.2432 200.2432 0 0 0 90.112-167.424z" fill="#151821" p-id="6147"></path><path d="M196.608 138.24v315.904c-3.072 25.088-15.872 82.432-44.544 110.592v37.888c61.44-32.768 74.24-140.8 74.752-145.92V129.536z" fill="#989E9A" p-id="6148"></path><path d="M512 285.696a196.352 196.352 0 0 0 195.584-180.224l-27.136-7.168h-0.512c-4.096 11.776-14.336 22.528-28.672 31.744a145.0496 145.0496 0 0 1-278.528 0c-14.336-9.216-24.576-19.968-28.672-31.744l-27.648 7.168A197.0688 197.0688 0 0 0 512 285.696z" fill="#151821" p-id="6149"></path><path d="M512 270.336a180.8384 180.8384 0 0 0 180.224-168.96l-11.776-3.072h-0.512a47.5648 47.5648 0 0 1-9.728 15.872 160 160 0 0 1-316.416 0 47.2576 47.2576 0 0 1-9.216-15.36l-12.288 3.584A179.8656 179.8656 0 0 0 512 270.336z" fill="#989E9A" p-id="6150"></path><path d="M152.064 902.144h719.872v49.152H152.064z" fill="#D38D1E" p-id="6151"></path><path d="M476.8768 576.3072v240.64H416.8192v-129.024a226.304 226.304 0 0 0-1.3312-33.5872 12.5952 12.5952 0 0 0-7.3728-8.5504q-6.0416-2.9184-26.8288-2.9184h-5.888v-28.0576q43.52-9.3696 66.1504-38.5536zM613.0176 680.5504a37.2224 37.2224 0 0 1 20.48 15.104q6.7072 10.24 6.7072 49.152a120.4736 120.4736 0 0 1-6.5536 44.544 46.4896 46.4896 0 0 1-22.5792 24.1152 89.856 89.856 0 0 1-40.96 8.2432q-28.5184 0-44.8-9.5744a46.4896 46.4896 0 0 1-21.76-23.6544q-5.12-13.8752-5.12-48.2304v-19.0464h60.0576v39.0656a63.232 63.232 0 0 0 1.8432 19.8656 8.0384 8.0384 0 0 0 8.2432 4.2496 8.9088 8.9088 0 0 0 9.216-5.12 99.584 99.584 0 0 0 2.2528-27.9552v-16.64a48.7424 48.7424 0 0 0-3.1232-20.224 15.36 15.36 0 0 0-9.216-8.3968 95.3856 95.3856 0 0 0-23.6544-2.304v-34.9184a120.9344 120.9344 0 0 0 26.4704-1.6384 11.52 11.52 0 0 0 7.2704-7.1168 48.9984 48.9984 0 0 0 2.2528-17.2544v-13.3632a34.8672 34.8672 0 0 0-2.6112-16.64 8.96 8.96 0 0 0-8.0896-3.9936 8.8064 8.8064 0 0 0-8.5504 4.2496 44.6976 44.6976 0 0 0-2.304 18.0736v19.7632H498.432v-20.48q0-34.4576 15.7696-46.592t50.0736-12.1344q42.9568 0 58.2656 16.7936t15.36 46.6432q0 20.1728-5.4784 29.184a49.1008 49.1008 0 0 1-19.4048 16.2304zM309.1456 377.4464l25.6 102.144L307.968 486.4l-25.3952-102.4zM385.4336 362.752l18.3808 103.6288-23.6032 4.1984-22.4256-44.5952 8.3456 47.104-22.528 3.9936-18.3296-103.6288 22.528-3.9936 23.3984 43.9808-8.2944-46.6432zM403.5072 360.3456l20.48-1.792a127.2832 127.2832 0 0 1 26.88-0.512 20.48 20.48 0 0 1 11.1104 5.12 18.944 18.944 0 0 1 5.12 8.8576 139.3152 139.3152 0 0 1 2.6624 19.8656l3.2256 36.7104a85.6576 85.6576 0 0 1 0.3072 18.9952 14.2336 14.2336 0 0 1-3.9936 7.8336 19.3024 19.3024 0 0 1-7.8336 4.4544 74.0352 74.0352 0 0 1-14.5408 2.3552l-34.4064 3.0208z m28.8256 15.36l6.0416 68.9664q5.888-0.512 7.0656-2.9696a34.8672 34.8672 0 0 0 0-12.9536l-3.584-40.96a54.7328 54.7328 0 0 0-1.024-8.9088 4.352 4.352 0 0 0-2.3552-2.7648 13.5168 13.5168 0 0 0-6.144-0.2048zM509.9008 354.0992l2.0992 105.216-27.3408 0.512-1.8944-105.216zM573.44 356.1472l10.496 105.8816-27.7504-1.2288-0.5632-18.944-9.7792-0.4608-2.56 18.7904-28.2624-1.3824 19.0464-104.448z m-17.7664 66.8672q-1.2288-17.9712-1.9968-44.3392-5.632 30.0032-7.424 43.8784zM661.8112 366.7456L647.168 471.04l-23.7568-3.328-7.424-49.3568-6.7072 47.2576-22.6816-3.1744L601.2928 358.4l22.6816 3.1744 8.6016 49.0496 6.5536-47.104zM726.1696 381.184l-9.0624 106.0352-27.1872-6.4512 2.9184-18.7392-9.5232-2.2528-5.9904 18.0224-27.5456-6.7584 37.888-99.1744zM696.32 443.6992q2.0992-17.8688 6.144-43.9808-11.0592 28.4672-15.36 41.7792z" fill="#223748" p-id="6152"></path><path d="M872.448 950.528v-420.864a201.6256 201.6256 0 0 1-30.208-105.984v-282.624l-161.28-43.008h-0.512c-13.312 36.352-83.456 64.512-167.936 64.512h-6.144v787.968z" opacity=".15" p-id="6153"></path></svg>