<?xml version="1.0" standalone="no"?><!DOCTYPE svg PUBLIC "-//W3C//DTD SVG 1.1//EN" "http://www.w3.org/Graphics/SVG/1.1/DTD/svg11.dtd"><svg t="1638180357377" class="icon" viewBox="0 0 1024 1024" version="1.1" xmlns="http://www.w3.org/2000/svg" p-id="2346" xmlns:xlink="http://www.w3.org/1999/xlink" width="128" height="128"><defs><style type="text/css"></style></defs><path d="M930.06 217.56v622.8a83.19 83.19 0 0 1-83.2 83.2h-622.8a126 126 0 0 1-126-126v-580a125.93 125.93 0 0 1 126-126h580a126 126 0 0 1 126 126z" fill="#4974EE" p-id="2347"></path><path d="M733.16 923.56h-509.1a126 126 0 0 1-126-126v-432q12.42-0.49 25-0.5 15.06 0 29.93 0.72C447.37 380 687.28 602 729.07 888.39q2.54 17.43 4.09 35.17z" fill="#FFFFFF" opacity=".2" p-id="2348"></path><path d="M930.06 217.56v622.8a82.87 82.87 0 0 1-6.69 32.74 635.16 635.16 0 0 1-146.61 17.06q-24.06 0-47.69-1.77c-291-21.67-527.21-240-576.13-522.58a638.8 638.8 0 0 1 8.24-257.47 125.48 125.48 0 0 1 62.88-16.78h580a126 126 0 0 1 126 126z" fill="#FFFFFF" opacity=".14" p-id="2349"></path><path d="M640.68 516.23a134.41 134.41 0 0 1 32 3.85V296.23a52.15 52.15 0 0 0-52-52h-304a52.15 52.15 0 0 0-52 52v363a52.15 52.15 0 0 0 52 52h204.66a134 134 0 0 1 119.34-195z m-315-155a20.06 20.06 0 0 1 20-20h212a20.06 20.06 0 0 1 20 20 20.06 20.06 0 0 1-20 20h-212a20.06 20.06 0 0 1-20-20z m3.69 100.35a18.42 18.42 0 0 1 18.36-18.36h175.59a18.42 18.42 0 0 1 18.36 18.36v3.29a18.41 18.41 0 0 1-18.36 18.35H347.73a18.41 18.41 0 0 1-18.36-18.35z m157.31 108.29a18.41 18.41 0 0 1-18.36 18.35H348.73a18.41 18.41 0 0 1-18.36-18.35v-3.29a18.42 18.42 0 0 1 18.36-18.36h119.59a18.42 18.42 0 0 1 18.36 18.36zM658.94 713.42l14.34-3.34-17.68-11.01 3.34 14.35zM641.15 627.49c21.76 0.39 35.5-5.69 35.05-12.48-0.47-7.16-13.83-11.82-35.05-12.1s-30.78 7.72-31.25 12.58c-0.62 6.36 9.78 11.62 31.25 12z" fill="#FFFFFF" p-id="2350"></path><path d="M649.08 539a116.5 116.5 0 1 0 116.5 116.5A116.5 116.5 0 0 0 649.08 539zM604.9 685.88c0 2.67 3 9.65 32.82 10.55v11.43c-21.62-1-42.94-4.45-44.75-17.41v-77.26c7.29-26.85 91.54-26.75 96.68 0.1 1.7 8.84-7.58 15.17-7.58 15.17s-8.6 9.42-41.06 9.42-36.11-9-36.11-9v17.9c0 2.85 3.4 15.72 37.32 15.56 2.13 0 6.82-0.07 10.64-0.17v13.4c-3.83 0.09-8.52 0.14-10.64 0.14-32.47 0-37.32-10.33-37.32-10.33zM722.52 647l-43 69.09-25.88 6-6-25.89 43-69.09a3.22 3.22 0 0 1 4.4-1l26.48 16.49a3.2 3.2 0 0 1 1.42 2 3.18 3.18 0 0 1-0.42 2.4z" fill="#FFFFFF" p-id="2351"></path></svg>