<?xml version="1.0" standalone="no"?><!DOCTYPE svg PUBLIC "-//W3C//DTD SVG 1.1//EN" "http://www.w3.org/Graphics/SVG/1.1/DTD/svg11.dtd"><svg t="1639374628568" class="icon" viewBox="0 0 1024 1024" version="1.1" xmlns="http://www.w3.org/2000/svg" p-id="5485" xmlns:xlink="http://www.w3.org/1999/xlink" width="128" height="128"><defs><style type="text/css"></style></defs><path d="M841.728 423.936V141.312l-161.28-43.008h-0.512c-13.312 36.352-83.456 64.512-167.936 64.512s-154.624-27.648-167.936-64l-163.328 43.52v281.6a199.68 199.68 0 0 1-29.184 103.936v422.912h720.384v-420.864a201.6256 201.6256 0 0 1-30.208-105.984z" fill="#2A5DB7" p-id="5486"></path><path d="M510.464 184.32c100.352 0 181.76-33.28 181.76-74.24a28.9792 28.9792 0 0 0-1.536-9.216l-10.24-2.56h-0.512c-13.312 36.352-83.456 64.512-167.936 64.512s-154.624-27.648-167.936-64l-14.336 3.584a39.5264 39.5264 0 0 0-1.024 7.68c0 40.96 81.408 74.24 181.76 74.24zM782.336 459.776V125.952l60.928 16.384v281.6a199.68 199.68 0 0 0 29.184 103.936v99.328a201.472 201.472 0 0 1-90.112-167.424z" fill="#B1B4BA" p-id="5487"></path><path d="M827.904 138.24v315.904c3.072 25.088 15.872 82.432 44.544 110.592v37.888c-61.44-32.768-74.24-140.8-74.752-145.92V129.536z" fill="#1E1F23" p-id="5488"></path><path d="M241.664 459.776V125.952l-60.928 16.384v281.6a199.68 199.68 0 0 1-29.184 103.936v99.328a200.2432 200.2432 0 0 0 90.112-167.424z" fill="#B1B4BA" p-id="5489"></path><path d="M196.608 138.24v315.904c-3.072 25.088-15.872 82.432-44.544 110.592v37.888c61.44-32.768 74.24-140.8 74.752-145.92V129.536z" fill="#1E1F23" p-id="5490"></path><path d="M512 285.696a196.352 196.352 0 0 0 195.584-180.224l-27.136-7.168h-0.512c-4.096 11.776-14.336 22.528-28.672 31.744a145.0496 145.0496 0 0 1-278.528 0c-14.336-9.216-24.576-19.968-28.672-31.744l-27.648 7.168A197.0688 197.0688 0 0 0 512 285.696z" fill="#B1B4BA" p-id="5491"></path><path d="M512 270.336a180.8384 180.8384 0 0 0 180.224-168.96l-11.776-3.072h-0.512a47.5648 47.5648 0 0 1-9.728 15.872 160 160 0 0 1-316.416 0 47.2576 47.2576 0 0 1-9.216-15.36l-12.288 3.584A179.8656 179.8656 0 0 0 512 270.336z" fill="#1E1F23" p-id="5492"></path><path d="M152.064 902.144h719.872v49.152H152.064z" fill="#0E3B7C" p-id="5493"></path><path d="M506.88 576.3072v52.4288l-38.4 188.16H408.7296L451.4816 619.52h-59.392v-43.264zM631.5008 576.3072v52.4288l-38.3488 188.16h-59.6992l42.7008-197.376h-59.392v-43.264z" fill="#B1B4BA" p-id="5494"></path><path d="M327.68 369.8688h19.712a122.5728 122.5728 0 0 1 25.6 1.7408 19.8144 19.8144 0 0 1 10.24 5.7344 18.2784 18.2784 0 0 1 4.352 8.9088 135.0656 135.0656 0 0 1 0.8704 19.3024v35.4304a81.92 81.92 0 0 1-1.28 18.2272 13.6704 13.6704 0 0 1-4.4544 7.168 18.5856 18.5856 0 0 1-7.8848 3.6352 71.68 71.68 0 0 1-14.1312 1.024H327.68z m26.3168 17.3056v66.56q5.6832 0 7.0144-2.304a33.4336 33.4336 0 0 0 1.3312-12.3904v-39.3216a53.0944 53.0944 0 0 0-0.4096-8.8064 4.1984 4.1984 0 0 0-1.9968-2.8672 13.056 13.056 0 0 0-5.888-0.8704zM444.9792 369.8688L460.032 471.04H433.152l-1.4336-18.176h-9.4208l-1.536 18.176h-27.2384l13.4144-101.1712z m-13.9264 65.024q-1.9968-17.2032-3.9936-42.496-4.0448 29.0816-5.12 42.496zM492.6464 369.8688V450.56h16.0256v20.48h-42.3424V369.8688zM542.1568 369.8688V450.56H558.08v20.48h-42.2912V369.8688zM613.9392 369.8688L628.992 471.04h-26.88l-1.4336-18.176h-9.4208l-1.536 18.176h-27.1872l13.4144-101.1712z m-13.9264 65.0752q-1.9968-17.2032-3.9936-42.496-4.0448 29.0816-5.12 42.496zM690.2272 400.4864H665.6v-7.5264a14.6944 14.6944 0 0 0-0.9216-6.7072 3.4304 3.4304 0 0 0-3.1232-1.4336 3.9936 3.9936 0 0 0-3.584 1.9456 11.3152 11.3152 0 0 0-1.2288 5.888 16.64 16.64 0 0 0 1.3824 7.6288 19.8144 19.8144 0 0 0 7.4752 6.1952 75.1616 75.1616 0 0 1 22.1184 17.1008 39.2704 39.2704 0 0 1 4.5568 21.5552 37.7344 37.7344 0 0 1-2.56 15.9232 19.7632 19.7632 0 0 1-9.7792 8.6016 38.656 38.656 0 0 1-16.896 3.4816 37.7344 37.7344 0 0 1-18.0224-3.9936 19.6096 19.6096 0 0 1-9.7792-10.24 52.1728 52.1728 0 0 1-2.304-17.5616v-6.5536h24.4224v12.288a16.1792 16.1792 0 0 0 1.024 7.3216 3.9936 3.9936 0 0 0 3.6352 1.6384 4.3008 4.3008 0 0 0 3.8912-2.048 11.776 11.776 0 0 0 1.28-6.144 18.9952 18.9952 0 0 0-2.4576-11.6736 77.4656 77.4656 0 0 0-12.288-9.1648 120.6784 120.6784 0 0 1-13.0048-9.4208 22.1184 22.1184 0 0 1-5.12-8.1408 35.84 35.84 0 0 1-2.0992-13.2608 36.8128 36.8128 0 0 1 2.9696-16.9984 19.968 19.968 0 0 1 9.9328-8.448 38.2976 38.2976 0 0 1 16.0256-3.0208 41.6768 41.6768 0 0 1 17.4592 3.328 18.2784 18.2784 0 0 1 9.5744 8.3456 44.1344 44.1344 0 0 1 2.3552 17.1008z" fill="#1E1F23" p-id="5495"></path><path d="M872.448 950.528v-420.864a201.6256 201.6256 0 0 1-30.208-105.984v-282.624l-161.28-43.008h-0.512c-13.312 36.352-83.456 64.512-167.936 64.512h-6.144v787.968z" opacity=".15" p-id="5496"></path></svg>