<?xml version="1.0" standalone="no"?><!DOCTYPE svg PUBLIC "-//W3C//DTD SVG 1.1//EN" "http://www.w3.org/Graphics/SVG/1.1/DTD/svg11.dtd"><svg t="1639374682229" class="icon" viewBox="0 0 1024 1024" version="1.1" xmlns="http://www.w3.org/2000/svg" p-id="5812" xmlns:xlink="http://www.w3.org/1999/xlink" width="128" height="128"><defs><style type="text/css"></style></defs><path d="M841.728 423.936V141.312l-161.28-43.008h-0.512c-13.312 36.352-83.456 64.512-167.936 64.512s-154.624-27.648-167.936-64l-163.328 43.52v281.6a199.68 199.68 0 0 1-29.184 103.936v422.912h720.384v-420.864a201.6256 201.6256 0 0 1-30.208-105.984z" fill="#1D2235" p-id="5813"></path><path d="M510.464 184.32c100.352 0 181.76-33.28 181.76-74.24a28.9792 28.9792 0 0 0-1.536-9.216l-10.24-2.56h-0.512c-13.312 36.352-83.456 64.512-167.936 64.512s-154.624-27.648-167.936-64l-14.336 3.584a39.5264 39.5264 0 0 0-1.024 7.68c0 40.96 81.408 74.24 181.76 74.24zM782.336 459.776V125.952l60.928 16.384v281.6a199.68 199.68 0 0 0 29.184 103.936v99.328a201.472 201.472 0 0 1-90.112-167.424z" fill="#FFFFFF" p-id="5814"></path><path d="M872.704 627.6608l-0.4096-0.256a201.7792 201.7792 0 0 1-90.2144-167.6288V125.5936h0.3072l61.1328 16.4352v281.6a199.168 199.168 0 0 0 29.1328 103.7824z m-90.112-501.4016V459.776a201.2672 201.2672 0 0 0 89.6 166.9632v-98.816a199.68 199.68 0 0 1-29.184-103.9872v-281.6z" p-id="5815"></path><path d="M827.904 138.24v315.904c3.072 25.088 15.872 82.432 44.544 110.592v37.888c-61.44-32.768-74.24-140.8-74.752-145.92V129.536z" fill="#FCBD1F" p-id="5816"></path><path d="M241.664 459.776V125.952l-60.928 16.384v281.6a199.68 199.68 0 0 1-29.184 103.936v99.328a200.2432 200.2432 0 0 0 90.112-167.424z" fill="#FFFFFF" p-id="5817"></path><path d="M151.296 627.6608v-99.84a199.2192 199.2192 0 0 0 29.184-103.8848v-281.6l61.44-16.4864V459.776a200.8576 200.8576 0 0 1-90.2144 167.6288z m0.512-99.7376v98.7648a200.3456 200.3456 0 0 0 89.6-166.912V126.3104l-60.416 16.2304v281.6a199.68 199.68 0 0 1-29.184 103.7824z" p-id="5818"></path><path d="M196.608 138.24v315.904c-3.072 25.088-15.872 82.432-44.544 110.592v37.888c61.44-32.768 74.24-140.8 74.752-145.92V129.536z" fill="#FCBD1F" p-id="5819"></path><path d="M512 285.696a196.352 196.352 0 0 0 195.584-180.224l-27.136-7.168h-0.512c-4.096 11.776-14.336 22.528-28.672 31.744a145.0496 145.0496 0 0 1-278.528 0c-14.336-9.216-24.576-19.968-28.672-31.744l-27.648 7.168A197.0688 197.0688 0 0 0 512 285.696z" fill="#FFFFFF" p-id="5820"></path><path d="M512 285.952a195.328 195.328 0 0 1-133.12-52.3776 197.5296 197.5296 0 0 1-62.72-128l27.904-7.2192c3.9424 11.3152 13.568 21.9648 28.5696 31.5904a144.7936 144.7936 0 0 0 278.016 0c15.0016-9.6768 24.6272-20.48 28.5696-31.5904h0.768l27.3408 7.2192A196.608 196.608 0 0 1 512 285.952zM316.672 105.6768a195.9936 195.9936 0 0 0 390.6048 0l-26.88-7.1168h-0.3072c-3.9936 11.3664-13.6192 21.9648-28.6208 31.6416a145.6128 145.6128 0 0 1-51.2 74.9056 145.2544 145.2544 0 0 1-176.0768 0 146.3296 146.3296 0 0 1-51.6608-74.9056c-14.9504-9.6256-24.576-20.48-28.6208-31.5904z" fill="#333333" p-id="5821"></path><path d="M512 270.336a180.8384 180.8384 0 0 0 180.224-168.96l-11.776-3.072h-0.512a47.5648 47.5648 0 0 1-9.728 15.872 160 160 0 0 1-316.416 0 47.2576 47.2576 0 0 1-9.216-15.36l-12.288 3.584A179.8656 179.8656 0 0 0 512 270.336z" fill="#FCBD1F" p-id="5822"></path><path d="M152.064 902.144h719.872v49.152H152.064z" fill="#161C2B" p-id="5823"></path><path d="M476.16 576.3072v240.64H415.8976v-129.024a227.072 227.072 0 0 0-1.1776-33.5872 12.544 12.544 0 0 0-7.3728-8.5504q-5.9904-2.9184-26.8288-2.9184h-6.0928v-28.0576q43.52-9.3696 66.1504-38.5536zM630.3232 576.3072v38.5024h-74.4448v40.96a45.0048 45.0048 0 0 1 35.84-16.4864q24.832 0 37.5296 13.8752t12.8512 53.4016v34.3552a205.824 205.824 0 0 1-2.4576 37.5296 52.4288 52.4288 0 0 1-10.24 22.1696 50.3808 50.3808 0 0 1-22.3744 15.36 99.3792 99.3792 0 0 1-35.0208 5.4272 97.28 97.28 0 0 1-40.96-8.0896 48.8448 48.8448 0 0 1-25.1392-24.1664q-7.424-16.0256-7.424-49.6128v-13.0048h60.0576v15.0016a229.2224 229.2224 0 0 0 1.6384 33.1264 10.24 10.24 0 0 0 11.3152 9.8304 10.24 10.24 0 0 0 10.24-8.9088q0-3.2768 0.512-28.3648v-47.7184a40.96 40.96 0 0 0-2.816-18.432 9.9328 9.9328 0 0 0-9.3696-5.12 10.24 10.24 0 0 0-6.9632 2.5088 11.6224 11.6224 0 0 0-3.6352 5.4272 65.536 65.536 0 0 0-0.8192 13.4656H498.944l2.5088-121.2928z" fill="#FFFFFF" p-id="5824"></path><path d="M321.2288 358.0928h19.712a122.5728 122.5728 0 0 1 25.6 1.7408 19.8144 19.8144 0 0 1 10.24 5.7344 18.2784 18.2784 0 0 1 4.352 8.9088 135.0656 135.0656 0 0 1 0.8704 19.3024v35.4304a81.92 81.92 0 0 1-1.28 18.2272 13.6704 13.6704 0 0 1-4.4544 7.168 18.5856 18.5856 0 0 1-7.6288 3.6352 71.68 71.68 0 0 1-14.1312 1.024h-33.28z m26.3168 17.3056v66.56q5.6832 0 7.0144-2.304a33.4336 33.4336 0 0 0 1.3312-12.3904v-39.3216a53.0944 53.0944 0 0 0-0.4096-8.8064 4.1984 4.1984 0 0 0-2.2016-2.816 13.056 13.056 0 0 0-5.7344-0.9216zM391.4752 358.0928H435.2v20.48h-17.408v19.2h16.4352v18.9952H417.792v22.272h19.3024v20.48h-45.6192zM503.6544 358.0928V459.264h-23.04l-13.6704-46.08v46.08h-22.016V358.0928h22.016l14.7456 45.568v-45.568zM578.56 358.0928l-13.4144 101.1712h-39.9872l-15.36-101.1712H537.6q4.8128 41.8304 6.912 70.7584 2.048-29.2352 4.352-51.9168l1.8432-18.8416zM584.8064 358.0928h43.8784v20.48h-17.5616v19.2h16.4352v18.9952h-16.4352v22.272h19.3024v20.48h-45.6192zM638.2592 358.0928h18.6368a142.2336 142.2336 0 0 1 25.2416 1.4336 17.3568 17.3568 0 0 1 10.752 7.3216 33.3312 33.3312 0 0 1 4.1472 18.8416 29.3888 29.3888 0 0 1-2.9184 15.872 15.36 15.36 0 0 1-11.5712 5.12 19.8144 19.8144 0 0 1 10.496 5.12 15.36 15.36 0 0 1 3.328 5.9904 94.6176 94.6176 0 0 1 0.6656 14.9504v26.5216h-24.4224v-33.6384a23.1936 23.1936 0 0 0-1.28-10.24q-1.28-1.9456-6.7072-1.9456v45.824h-26.3168z m26.3168 17.3056v22.4768a11.5712 11.5712 0 0 0 6.1952-1.2288q1.792-1.2288 1.792-7.8848v-5.5808a8.448 8.448 0 0 0-1.6896-6.2976 9.7792 9.7792 0 0 0-6.2976-1.4848z" fill="#FCBD1F" p-id="5825"></path><path d="M872.448 950.528v-420.864a201.6256 201.6256 0 0 1-30.208-105.984v-282.624l-161.28-43.008h-0.512c-13.312 36.352-83.456 64.512-167.936 64.512h-6.144v787.968z" opacity=".15" p-id="5826"></path></svg>