<?xml version="1.0" standalone="no"?><!DOCTYPE svg PUBLIC "-//W3C//DTD SVG 1.1//EN" "http://www.w3.org/Graphics/SVG/1.1/DTD/svg11.dtd"><svg t="1638171588414" class="icon" viewBox="0 0 1024 1024" version="1.1" xmlns="http://www.w3.org/2000/svg" p-id="3867" xmlns:xlink="http://www.w3.org/1999/xlink" width="128" height="128"><defs><style type="text/css"></style></defs><path d="M271.872 263.68h509.952c40.448 0 72.704 32.768 72.704 72.704v437.248c0 40.448-32.768 72.704-72.704 72.704H271.872c-40.448 0-72.704-32.768-72.704-72.704V336.896c0-40.448 32.768-73.216 72.704-73.216z" fill="#CAE4FF" p-id="3868"></path><path d="M940.48256 427.008c-15.872 0-28.672-12.8-28.672-28.672V328.704c0.512-15.872 13.824-28.16 29.696-27.648 15.36 0.512 27.136 12.8 27.648 27.648v69.12c0 16.384-12.8 29.184-28.672 29.184z m-545.28-187.392c-15.872 0-28.672-12.8-28.672-28.672V74.24c0.512-15.872 13.824-28.16 29.696-27.648 15.36 0.512 27.136 12.8 27.648 27.648v136.704c0 15.872-12.8 28.672-28.672 28.672z m130.56 0c-15.872 0-28.672-12.8-28.672-28.672V74.24c0.512-15.872 13.824-28.16 29.696-27.648 15.36 0.512 27.136 12.8 27.648 27.648v136.704c0 15.872-12.8 28.672-28.672 28.672z m130.56 0c-15.872 0-28.672-12.8-28.672-28.672V74.24c-0.512-15.872 11.776-29.184 27.648-29.696 15.872-0.512 29.184 11.776 29.696 27.648V210.944c0 15.872-12.8 28.672-28.672 28.672zM748.99456 498.688c-15.872 0-28.672-12.8-28.672-28.672V374.784h-93.184c-15.872 0.512-29.184-11.776-29.696-27.648-0.512-15.872 11.776-29.184 27.648-29.696H745.92256c17.92 0 32.768 14.848 32.768 32.768v120.32c-0.512 15.36-13.312 28.16-29.696 28.16 0.512 0 0 0 0 0zM330.69056 782.336c-15.872 0-28.672-12.8-28.672-28.672v-136.704c-0.512-15.872 11.776-29.184 27.648-29.696 15.872-0.512 29.184 11.776 29.696 27.648V753.664c0 15.872-12.8 28.672-28.672 28.672z m130.048 0c-15.872 0-28.672-12.8-28.672-28.672V522.24c0.512-15.872 13.824-28.16 29.696-27.648 15.36 0.512 27.136 12.8 27.648 27.648v231.424c0 15.872-12.8 28.672-28.672 28.672z m130.048 0c-15.872 0-28.672-12.8-28.672-28.672v-81.408c-0.512-15.872 11.776-29.184 27.648-29.696 15.872-0.512 29.184 11.776 29.696 27.648v83.456c0.512 15.872-12.288 28.672-28.672 28.672z m130.56 0c-15.872 0-28.672-12.8-28.672-28.672v-173.056c0.512-15.872 13.824-28.16 29.696-27.648 15.36 0.512 27.136 12.8 27.648 27.648v173.056c0 15.872-12.8 28.672-28.672 28.672z" fill="#0972E7" p-id="3869"></path><path d="M316.35456 532.992c-15.872 0-28.672-12.8-28.672-28.672 0-7.68 3.072-14.848 8.192-20.48l141.312-141.312c11.264-11.264 29.696-11.264 40.96 0l117.76 118.272 119.296-119.296c9.728-12.288 28.16-14.336 40.448-4.608 12.288 9.728 14.336 28.16 4.608 40.448-1.536 1.536-2.56 3.072-4.608 4.608l-139.264 139.776c-11.264 11.264-29.696 11.264-40.96 0l-118.272-118.272-120.832 120.832c-5.12 5.632-12.288 8.704-19.968 8.704zM940.48256 456.704c-15.872 0-28.672-12.8-28.672-28.672V355.328c0.512-15.872 13.824-28.16 29.696-27.648 15.36 0.512 27.136 12.8 27.648 27.648v72.704c0 15.872-12.8 28.672-28.672 28.672zM915.39456 996.864c-15.872 1.024-29.696-10.752-30.72-27.136-1.024-15.872 10.752-29.696 27.136-30.72v-422.912c0.512-15.872 13.824-28.16 29.696-27.648 15.36 0.512 27.136 12.8 27.648 27.648v426.496c0 30.208-24.064 54.272-53.76 54.272z" fill="#0972E7" p-id="3870"></path><path d="M915.39456 996.864c-15.872 1.024-29.696-10.752-30.72-27.136-1.024-15.872 10.752-29.696 27.136-30.72v-368.64c-0.512-15.872 11.776-29.184 27.648-29.696 15.872-0.512 29.184 11.776 29.696 27.648v373.76c0.512 30.208-23.552 54.784-53.76 54.784 0.512 0 0.512 0 0 0z" fill="#0972E7" p-id="3871"></path><path d="M915.39456 996.864c-15.872 1.024-29.696-10.752-30.72-27.136-1.024-15.872 10.752-29.696 27.136-30.72v-320c-0.512-15.872 11.776-29.184 27.648-29.696 15.872-0.512 29.184 11.776 29.696 27.648v325.632c0.512 29.696-23.552 54.272-53.76 54.272 0.512 0 0 0 0 0z" fill="#0972E7" p-id="3872"></path><path d="M915.39456 996.864h-779.264c-29.696 0-53.76-24.064-53.76-53.76V167.424c0-29.696 24.064-53.76 53.76-53.76h779.264c29.696 0 53.76 24.064 53.76 53.76v90.624c-0.512 15.872-13.824 28.16-29.696 27.648-15.36-0.512-27.136-12.8-27.648-27.648V171.52h-771.584v767.488h771.072v-259.584c-0.512-15.872 11.776-29.184 27.648-29.696 15.872-0.512 29.184 11.776 29.696 27.648v265.216c1.024 29.696-23.04 54.272-53.248 54.272z" fill="#0972E7" p-id="3873"></path></svg>