<?xml version="1.0" standalone="no"?><!DOCTYPE svg PUBLIC "-//W3C//DTD SVG 1.1//EN" "http://www.w3.org/Graphics/SVG/1.1/DTD/svg11.dtd"><svg t="1639373367921" class="icon" viewBox="0 0 1024 1024" version="1.1" xmlns="http://www.w3.org/2000/svg" p-id="2615" xmlns:xlink="http://www.w3.org/1999/xlink" width="128" height="128"><defs><style type="text/css"></style></defs><path d="M273.408 207.36h492.032c38.912 0 70.144 31.232 70.144 70.144v492.032c0 38.912-31.232 70.144-70.144 70.144H273.408c-38.912 0-70.144-31.232-70.144-70.144V277.504c0-38.912 31.232-70.144 70.144-70.144z" fill="#CAE4FF" p-id="2616"></path><path d="M160.768 127.488c-16.896-1.024-31.744 11.776-32.768 29.184v725.504c-1.024 16.896 11.776 31.744 29.184 32.768h725.504c16.896 1.024 31.744-11.776 32.768-29.184V160.256c1.024-16.896-11.776-31.744-29.184-32.768h-3.584-721.92z m0-65.536h721.92c53.76 1.536 97.28 44.544 98.304 98.304v721.92c-1.536 53.76-44.544 97.28-98.304 98.304h-721.92c-53.76-1.536-97.28-44.544-98.304-98.304v-721.92c1.024-53.76 44.544-96.768 98.304-98.304z m393.728 262.656h196.608c16.896-1.024 31.744 11.776 32.768 29.184v3.584c1.024 16.896-11.776 31.744-29.184 32.768h-200.192c-16.896 1.024-31.744-11.776-32.768-29.184v-3.584c-1.024-16.896 11.776-31.744 29.184-32.768h3.584z m-197.12 393.728c17.92 0 32.768-14.848 32.768-32.768 0-17.92-14.848-32.768-32.768-32.768-17.92 0-32.768 14.848-32.768 32.768 0 17.92 14.848 32.768 32.768 32.768z m0 65.536c-54.272 0-98.304-44.032-98.304-98.304s44.032-98.304 98.304-98.304S455.68 631.296 455.68 685.568s-43.52 98.304-98.304 98.304z m-6.144-400.384L279.04 311.296c-13.312-12.288-33.792-11.776-46.08 1.536-11.776 12.288-11.776 31.744 0 44.544l91.648 91.648c7.168 6.656 16.384 11.264 26.112 13.312 9.216 1.024 18.432-1.536 26.112-6.656l137.728-137.728c12.8-12.8 12.8-33.28 0-46.08s-33.28-12.8-46.08 0L351.232 383.488z m203.264 268.8h196.608c17.92 0 32.768 14.848 32.768 32.768 0 17.92-14.848 32.768-32.768 32.768h-196.608c-17.92 0-32.768-14.848-32.768-32.768 0-17.92 14.848-32.768 32.768-32.768z" fill="#0972E7" p-id="2617"></path></svg>